<svg id="svg" version="1.1" xmlns="http://www.w3.org/2000/svg" xmlns:xlink="http://www.w3.org/1999/xlink" width="400" height="400" viewBox="0, 0, 400,400"><g id="svgg"><path id="path0" d="M188.707 94.690 C 189.426 94.779,190.506 94.777,191.107 94.686 C 191.708 94.595,191.120 94.522,189.800 94.524 C 188.480 94.526,187.988 94.601,188.707 94.690 M199.891 94.689 C 200.601 94.777,201.861 94.779,202.691 94.692 C 203.521 94.605,202.940 94.533,201.400 94.531 C 199.860 94.529,199.181 94.600,199.891 94.689 M205.905 95.083 C 206.402 95.179,207.122 95.175,207.505 95.075 C 207.887 94.975,207.480 94.896,206.600 94.901 C 205.720 94.905,205.407 94.987,205.905 95.083 M182.800 95.600 C 182.800 95.820,183.160 96.000,183.600 96.000 C 184.040 96.000,184.400 95.820,184.400 95.600 C 184.400 95.380,184.040 95.200,183.600 95.200 C 183.160 95.200,182.800 95.380,182.800 95.600 M209.600 95.600 C 209.600 95.820,210.275 95.987,211.100 95.972 C 212.303 95.949,212.442 95.876,211.800 95.600 C 210.688 95.122,209.600 95.122,209.600 95.600 M215.646 96.919 C 215.621 97.314,215.063 97.944,214.406 98.319 C 212.974 99.136,212.295 100.298,213.684 99.555 C 215.203 98.742,216.079 97.698,215.883 96.936 C 215.705 96.247,215.690 96.246,215.646 96.919 M177.000 97.639 C 176.120 98.068,175.732 98.324,176.137 98.208 C 176.543 98.091,177.308 97.888,177.837 97.755 C 178.367 97.622,178.800 97.353,178.800 97.157 C 178.800 96.728,178.954 96.687,177.000 97.639 M233.412 99.187 C 232.689 99.985,233.054 102.880,234.441 107.360 C 234.936 108.959,234.892 114.556,234.368 116.554 C 233.005 121.753,232.137 123.751,230.003 126.600 C 229.343 127.480,228.540 128.740,228.218 129.400 C 227.782 130.293,227.627 130.404,227.616 129.833 C 227.607 129.412,227.509 129.158,227.397 129.269 C 226.796 129.871,227.728 131.900,228.605 131.900 C 230.363 131.900,238.400 139.104,238.400 140.680 C 238.400 140.966,238.567 141.200,238.771 141.200 C 238.975 141.200,239.391 141.695,239.697 142.300 C 240.003 142.905,240.454 143.760,240.701 144.200 C 242.311 147.076,243.669 151.060,244.373 154.973 C 245.231 159.743,244.521 169.493,243.285 169.905 C 242.588 170.137,242.667 173.392,243.385 173.987 C 244.155 174.626,246.324 173.933,247.782 172.582 C 248.365 172.042,248.938 171.600,249.057 171.600 C 249.928 171.600,262.060 159.859,264.789 156.374 C 265.553 155.398,266.363 154.362,266.589 154.072 C 266.815 153.781,267.328 153.241,267.729 152.872 C 269.221 151.496,270.194 147.614,269.200 147.000 C 268.980 146.864,268.800 146.232,268.800 145.596 C 268.800 144.247,267.851 140.417,267.229 139.255 C 266.993 138.814,266.800 138.004,266.800 137.455 C 266.800 136.906,266.530 136.187,266.200 135.857 C 265.870 135.527,265.600 134.983,265.600 134.647 C 265.600 134.311,264.645 132.184,263.478 129.918 C 260.747 124.620,260.306 123.868,259.700 123.480 C 259.425 123.304,259.200 122.977,259.200 122.753 C 259.200 122.530,258.750 121.757,258.200 121.036 C 257.650 120.314,257.200 119.536,257.200 119.305 C 257.200 119.074,256.930 118.782,256.600 118.655 C 256.270 118.529,256.000 118.158,256.000 117.832 C 256.000 117.506,255.775 117.096,255.500 116.920 C 255.225 116.744,254.010 115.437,252.800 114.015 C 250.425 111.224,244.717 105.578,243.190 104.508 C 242.672 104.145,241.936 103.568,241.553 103.224 C 240.391 102.181,239.643 101.600,239.462 101.600 C 239.368 101.600,238.213 100.880,236.895 100.000 C 234.099 98.133,234.319 98.184,233.412 99.187 M172.500 99.688 C 171.580 100.132,171.280 100.800,172.000 100.800 C 172.220 100.800,172.400 100.648,172.400 100.461 C 172.400 100.275,172.805 99.927,173.300 99.688 C 173.795 99.449,174.020 99.254,173.800 99.254 C 173.580 99.254,172.995 99.449,172.500 99.688 M210.800 101.220 C 210.250 101.862,209.350 102.654,208.800 102.978 C 208.250 103.302,208.035 103.575,208.323 103.584 C 208.611 103.593,209.691 102.794,210.723 101.809 C 211.755 100.824,212.420 100.026,212.200 100.035 C 211.980 100.045,211.350 100.578,210.800 101.220 M169.722 101.824 C 168.905 102.570,168.826 102.739,169.433 102.446 C 170.263 102.045,171.502 100.800,171.071 100.800 C 170.947 100.800,170.340 101.261,169.722 101.824 M167.483 103.612 C 167.111 104.045,166.964 104.400,167.155 104.400 C 167.595 104.400,168.574 103.241,168.336 103.002 C 168.238 102.904,167.854 103.179,167.483 103.612 M165.867 105.667 C 165.463 106.107,165.240 106.574,165.371 106.704 C 165.613 106.947,166.764 105.643,166.787 105.100 C 166.805 104.689,166.709 104.747,165.867 105.667 M205.558 106.562 C 203.633 108.496,203.479 108.800,204.427 108.800 C 205.018 108.800,205.215 108.617,205.060 108.213 C 204.936 107.890,205.007 107.519,205.217 107.389 C 205.428 107.259,205.600 107.343,205.600 107.576 C 205.600 107.809,206.095 107.986,206.700 107.968 C 207.713 107.939,207.634 107.866,206.046 107.360 C 205.602 107.219,205.634 107.025,206.208 106.392 C 207.221 105.271,206.710 105.406,205.558 106.562 M157.618 107.351 C 157.885 107.619,164.769 107.765,165.025 107.508 C 165.138 107.395,163.474 107.270,161.327 107.230 C 159.180 107.190,157.511 107.244,157.618 107.351 M209.500 107.489 C 210.215 107.578,211.385 107.578,212.100 107.489 C 212.815 107.401,212.230 107.328,210.800 107.328 C 209.370 107.328,208.785 107.401,209.500 107.489 M216.800 108.353 C 216.800 108.548,217.205 108.815,217.700 108.948 C 219.233 109.359,219.450 109.221,218.254 108.598 C 216.919 107.901,216.800 107.881,216.800 108.353 M152.145 109.800 C 152.018 110.130,151.696 110.400,151.429 110.400 C 151.163 110.400,150.553 110.850,150.075 111.400 C 149.597 111.950,149.383 112.400,149.599 112.400 C 149.816 112.400,150.218 112.040,150.493 111.600 C 150.768 111.160,151.191 110.800,151.434 110.800 C 151.677 110.800,152.202 110.440,152.600 110.000 C 153.032 109.523,153.132 109.200,152.849 109.200 C 152.588 109.200,152.271 109.470,152.145 109.800 M222.293 111.200 C 222.670 111.640,223.146 112.000,223.351 112.000 C 223.556 112.000,223.398 111.640,223.000 111.200 C 222.602 110.760,222.126 110.400,221.942 110.400 C 221.758 110.400,221.916 110.760,222.293 111.200 M224.240 112.560 C 224.362 112.878,224.718 113.236,225.031 113.357 C 225.344 113.477,225.600 113.971,225.600 114.454 C 225.600 114.938,225.712 115.222,225.848 115.085 C 226.302 114.631,225.601 112.829,224.804 112.402 C 224.175 112.065,224.062 112.097,224.240 112.560 M148.132 114.124 C 147.664 114.826,147.174 115.760,147.041 116.200 C 146.909 116.640,146.131 117.450,145.312 118.000 C 143.540 119.190,138.000 124.757,138.000 125.348 C 138.000 125.874,140.770 123.139,140.787 122.596 C 140.794 122.373,141.362 121.743,142.049 121.196 C 142.736 120.648,143.746 119.801,144.294 119.313 C 144.841 118.825,145.610 118.324,146.002 118.199 C 146.393 118.075,146.948 117.394,147.234 116.687 C 147.520 115.979,147.855 115.310,147.977 115.200 C 148.374 114.843,149.259 113.126,149.119 112.985 C 149.044 112.910,148.599 113.423,148.132 114.124 M218.915 115.496 C 220.188 115.576,222.168 115.575,223.315 115.494 C 224.462 115.414,223.420 115.349,221.000 115.350 C 218.580 115.351,217.642 115.416,218.915 115.496 M220.606 119.591 C 221.923 120.906,223.163 121.986,223.363 121.991 C 223.562 121.996,222.618 120.920,221.265 119.600 C 219.912 118.280,218.671 117.200,218.508 117.200 C 218.346 117.200,219.290 118.276,220.606 119.591 M223.600 122.513 C 223.600 122.913,224.480 124.438,225.100 125.113 C 225.932 126.018,225.662 125.249,224.600 123.686 C 224.050 122.877,223.600 122.349,223.600 122.513 M173.067 124.733 C 173.190 125.205,173.481 125.473,173.713 125.330 C 173.977 125.167,174.040 125.320,173.881 125.734 C 173.740 126.100,173.799 126.400,174.013 126.400 C 174.226 126.400,174.400 126.642,174.400 126.938 C 174.400 127.234,174.760 127.802,175.200 128.200 C 176.528 129.402,176.245 130.400,174.576 130.400 C 173.729 130.400,173.253 130.562,173.400 130.800 C 174.354 132.344,176.785 130.555,176.122 128.798 C 175.719 127.731,175.745 127.681,176.546 127.991 C 177.016 128.174,177.348 128.543,177.284 128.811 C 177.217 129.088,177.412 129.204,177.735 129.080 C 178.047 128.961,178.504 129.064,178.751 129.311 C 179.083 129.643,179.200 129.632,179.200 129.270 C 179.200 129.001,178.750 128.609,178.200 128.400 C 177.650 128.191,177.200 127.835,177.200 127.610 C 177.200 127.384,176.982 127.200,176.715 127.200 C 176.448 127.200,175.468 126.452,174.536 125.537 C 173.228 124.254,172.893 124.070,173.067 124.733 M136.860 127.100 C 136.371 127.705,135.868 128.605,135.742 129.100 C 135.616 129.595,135.353 130.000,135.157 130.000 C 134.960 130.000,134.800 130.180,134.800 130.400 C 134.800 131.323,135.586 130.696,136.054 129.400 C 136.333 128.630,136.676 128.000,136.816 128.000 C 136.957 128.000,137.277 127.550,137.527 127.000 C 138.112 125.716,137.960 125.739,136.860 127.100 M150.077 129.458 C 149.375 130.040,148.800 130.683,148.800 130.887 C 148.800 131.090,148.530 131.527,148.200 131.857 C 147.870 132.187,147.603 132.759,147.606 133.129 C 147.612 133.823,148.511 132.559,149.035 131.119 C 149.408 130.096,151.200 129.030,153.000 128.760 L 154.600 128.520 152.977 128.460 C 151.754 128.415,151.040 128.660,150.077 129.458 M167.200 128.590 C 167.200 128.868,167.725 129.529,169.300 131.236 C 169.905 131.891,170.400 132.252,170.400 132.036 C 170.400 131.821,170.074 131.410,169.676 131.123 C 168.317 130.142,168.224 129.547,169.466 129.786 C 170.090 129.906,170.330 129.887,170.000 129.742 C 169.670 129.598,169.310 129.351,169.200 129.194 C 168.929 128.806,167.200 128.284,167.200 128.590 M181.300 130.276 C 181.685 130.376,182.000 130.625,182.000 130.829 C 182.000 131.033,182.270 131.200,182.600 131.200 C 183.524 131.200,183.310 130.523,182.300 130.252 C 181.805 130.119,181.220 130.029,181.000 130.052 C 180.780 130.074,180.915 130.175,181.300 130.276 M134.074 132.198 C 133.823 132.749,133.772 133.200,133.962 133.200 C 134.294 133.200,134.892 131.559,134.649 131.316 C 134.584 131.250,134.325 131.647,134.074 132.198 M157.432 131.549 C 157.278 131.797,157.343 132.000,157.576 132.000 C 157.809 132.000,158.014 132.315,158.032 132.700 C 158.049 133.092,158.150 133.187,158.260 132.915 C 158.543 132.218,157.788 130.973,157.432 131.549 M149.670 132.732 C 149.033 133.354,148.411 134.119,148.287 134.432 C 148.095 134.915,147.998 134.910,147.637 134.400 C 147.169 133.739,147.048 134.340,147.443 135.367 C 147.817 136.343,148.193 136.128,148.736 134.626 C 149.051 133.754,149.665 133.061,150.416 132.729 C 151.067 132.440,151.600 132.069,151.600 131.902 C 151.600 131.286,150.794 131.632,149.670 132.732 M152.800 132.000 C 152.800 132.220,153.051 132.400,153.357 132.400 C 153.969 132.400,154.400 133.241,154.400 134.433 C 154.400 134.855,154.580 135.200,154.800 135.200 C 155.020 135.200,155.200 134.750,155.200 134.200 C 155.200 133.650,155.032 133.200,154.827 133.200 C 154.622 133.200,154.340 132.840,154.200 132.400 C 153.943 131.590,152.800 131.263,152.800 132.000 M187.000 132.400 C 187.136 132.620,187.597 132.800,188.024 132.800 C 188.451 132.800,188.800 132.620,188.800 132.400 C 188.800 132.180,188.339 132.000,187.776 132.000 C 187.196 132.000,186.860 132.173,187.000 132.400 M190.100 133.076 C 190.485 133.176,191.115 133.176,191.500 133.076 C 191.885 132.975,191.570 132.893,190.800 132.893 C 190.030 132.893,189.715 132.975,190.100 133.076 M151.029 133.829 C 150.101 134.756,150.264 135.047,151.224 134.178 C 151.920 133.549,152.104 133.521,152.403 134.004 C 152.597 134.319,152.896 134.437,153.067 134.267 C 153.237 134.096,153.112 133.789,152.788 133.584 C 151.980 133.073,151.753 133.104,151.029 133.829 M164.846 134.100 C 164.879 134.741,164.944 134.805,165.071 134.323 C 165.188 133.882,165.765 133.591,166.725 133.490 L 168.200 133.334 166.500 133.267 C 164.972 133.207,164.805 133.291,164.846 134.100 M192.400 133.503 C 192.400 133.669,193.255 133.752,194.300 133.686 C 197.587 133.479,197.898 133.311,195.100 133.254 C 193.615 133.225,192.400 133.336,192.400 133.503 M202.203 134.004 C 202.490 134.469,204.800 134.390,204.800 133.915 C 204.800 133.742,204.159 133.600,203.376 133.600 C 202.519 133.600,202.052 133.761,202.203 134.004 M196.705 134.683 C 197.202 134.779,197.922 134.775,198.305 134.675 C 198.687 134.575,198.280 134.496,197.400 134.501 C 196.520 134.505,196.207 134.587,196.705 134.683 M206.033 135.233 C 206.492 135.692,206.974 135.960,207.104 135.829 C 207.235 135.699,206.995 135.329,206.571 135.009 C 205.421 134.139,205.081 134.281,206.033 135.233 M132.298 136.395 C 131.495 138.248,131.431 138.800,132.018 138.800 C 132.247 138.800,132.398 138.575,132.353 138.300 C 132.308 138.025,132.486 137.278,132.749 136.639 C 133.497 134.820,133.078 134.594,132.298 136.395 M153.342 138.200 C 153.341 140.180,153.408 141.040,153.492 140.112 C 153.576 139.184,153.577 137.564,153.495 136.512 C 153.412 135.460,153.343 136.220,153.342 138.200 M194.000 135.200 C 194.000 135.420,194.270 135.600,194.600 135.600 C 194.930 135.600,195.200 135.420,195.200 135.200 C 195.200 134.980,194.930 134.800,194.600 134.800 C 194.270 134.800,194.000 134.980,194.000 135.200 M199.600 134.995 C 199.600 135.102,200.200 135.440,200.933 135.746 C 201.666 136.052,202.658 136.802,203.138 137.413 C 203.618 138.023,204.117 138.416,204.246 138.287 C 204.539 137.994,202.960 136.366,201.514 135.472 C 200.455 134.816,199.600 134.603,199.600 134.995 M149.390 136.030 C 149.246 136.487,149.233 136.967,149.363 137.097 C 149.494 137.227,149.600 137.033,149.600 136.667 C 149.600 136.300,149.780 136.000,150.000 136.000 C 150.220 136.000,150.400 135.820,150.400 135.600 C 150.400 134.870,149.658 135.186,149.390 136.030 M146.400 139.590 C 146.400 141.926,146.544 143.158,146.800 143.000 C 147.020 142.864,147.200 141.943,147.200 140.953 C 147.200 139.963,147.361 139.252,147.558 139.374 C 147.755 139.496,148.019 139.326,148.146 138.998 C 148.272 138.669,148.212 138.400,148.014 138.400 C 147.816 138.400,147.596 137.919,147.527 137.331 C 147.187 134.463,146.400 136.042,146.400 139.590 M190.600 137.600 C 189.741 138.480,189.178 139.200,189.350 139.200 C 189.522 139.200,190.376 138.480,191.247 137.600 C 192.118 136.720,192.680 136.000,192.497 136.000 C 192.313 136.000,191.459 136.720,190.600 137.600 M158.800 138.200 C 158.800 139.190,158.980 140.000,159.200 140.000 C 159.420 140.000,159.600 139.190,159.600 138.200 C 159.600 137.210,159.420 136.400,159.200 136.400 C 158.980 136.400,158.800 137.210,158.800 138.200 M164.000 137.776 C 164.000 138.533,164.180 139.264,164.400 139.400 C 164.642 139.549,164.800 139.004,164.800 138.024 C 164.800 137.131,164.620 136.400,164.400 136.400 C 164.180 136.400,164.000 137.019,164.000 137.776 M195.517 136.670 C 195.918 136.831,195.927 137.006,195.560 137.448 C 195.177 137.909,195.212 137.970,195.743 137.766 C 196.619 137.430,196.586 136.392,195.700 136.432 C 195.255 136.452,195.188 136.539,195.517 136.670 M209.126 137.004 C 209.635 137.377,210.160 137.573,210.293 137.441 C 210.613 137.121,210.395 136.955,209.200 136.613 L 208.200 136.326 209.126 137.004 M193.800 137.211 C 193.580 137.415,192.879 138.036,192.242 138.591 C 191.604 139.146,191.229 139.600,191.408 139.600 C 191.587 139.600,192.018 139.328,192.366 138.996 C 192.715 138.663,193.450 138.039,194.000 137.609 C 194.550 137.179,194.820 136.830,194.600 136.833 C 194.380 136.837,194.020 137.007,193.800 137.211 M199.600 137.751 C 199.600 139.004,198.490 139.994,197.991 139.186 C 197.800 138.876,197.558 138.708,197.454 138.812 C 197.350 138.916,197.518 139.347,197.827 139.769 C 198.374 140.518,198.407 140.514,199.194 139.607 C 199.905 138.787,200.334 136.800,199.800 136.800 C 199.690 136.800,199.600 137.228,199.600 137.751 M229.200 142.200 C 229.200 145.196,229.342 146.759,229.600 146.600 C 229.825 146.461,230.000 144.537,230.000 142.200 C 230.000 139.863,229.825 137.939,229.600 137.800 C 229.342 137.641,229.200 139.204,229.200 142.200 M155.301 139.400 C 155.305 140.280,155.387 140.593,155.483 140.095 C 155.579 139.598,155.575 138.878,155.475 138.495 C 155.375 138.113,155.296 138.520,155.301 139.400 M204.135 139.959 C 203.866 140.676,203.829 141.200,204.047 141.200 C 204.538 141.200,204.904 140.229,204.734 139.382 C 204.644 138.934,204.448 139.122,204.135 139.959 M210.212 139.317 C 210.041 139.712,210.013 140.147,210.151 140.284 C 210.557 140.690,210.884 140.120,210.697 139.331 C 210.532 138.633,210.510 138.632,210.212 139.317 M216.500 139.876 C 216.885 139.976,217.200 140.225,217.200 140.429 C 217.200 140.633,217.470 140.800,217.800 140.800 C 218.724 140.800,218.510 140.123,217.500 139.852 C 217.005 139.719,216.420 139.629,216.200 139.652 C 215.980 139.674,216.115 139.775,216.500 139.876 M137.780 140.333 C 137.571 140.515,136.636 140.882,135.703 141.148 C 134.048 141.618,131.719 143.452,132.185 143.918 C 132.313 144.047,132.694 143.758,133.032 143.276 C 133.369 142.794,133.905 142.400,134.223 142.400 C 134.540 142.400,134.800 142.220,134.800 142.000 C 134.800 141.513,135.870 141.466,136.163 141.941 C 136.279 142.128,136.020 142.976,135.587 143.825 C 134.673 145.618,134.677 145.600,135.200 145.600 C 135.420 145.600,135.569 145.465,135.530 145.300 C 135.455 144.979,136.440 142.732,136.801 142.400 C 137.139 142.089,138.434 140.000,138.289 140.000 C 138.218 140.000,137.989 140.150,137.780 140.333 M190.346 141.400 C 190.022 142.294,189.579 142.800,189.120 142.800 C 188.724 142.800,188.400 142.980,188.400 143.200 C 188.400 143.679,188.816 143.704,189.506 143.267 C 190.156 142.854,191.621 140.000,191.183 140.000 C 191.001 140.000,190.624 140.630,190.346 141.400 M211.606 141.500 C 211.611 142.357,211.698 142.468,212.000 142.000 C 212.506 141.217,212.506 140.400,212.000 140.400 C 211.780 140.400,211.603 140.895,211.606 141.500 M209.612 141.780 C 209.603 142.641,209.720 142.840,210.041 142.519 C 210.358 142.202,210.361 141.868,210.054 141.339 C 209.677 140.691,209.623 140.746,209.612 141.780 M219.003 141.205 C 219.137 141.422,219.492 141.600,219.790 141.600 C 220.089 141.600,220.425 141.785,220.537 142.010 C 220.649 142.236,220.699 142.208,220.649 141.948 C 220.600 141.689,220.154 141.327,219.659 141.144 C 219.088 140.932,218.849 140.955,219.003 141.205 M149.893 142.000 C 149.022 143.017,149.500 143.017,150.800 142.000 C 151.487 141.463,151.609 141.215,151.189 141.209 C 150.853 141.204,150.270 141.560,149.893 142.000 M163.600 142.576 C 163.600 143.904,163.512 144.004,162.300 144.060 C 161.055 144.117,161.048 144.127,162.124 144.289 C 163.854 144.549,165.315 142.213,163.950 141.369 C 163.758 141.250,163.600 141.793,163.600 142.576 M201.818 144.217 C 201.641 145.398,201.121 146.518,200.332 147.417 C 199.393 148.486,199.268 148.800,199.782 148.800 C 200.148 148.800,200.356 148.652,200.244 148.471 C 200.132 148.291,200.397 147.838,200.832 147.466 C 201.266 147.093,201.730 146.248,201.863 145.586 C 201.995 144.925,202.260 144.286,202.452 144.168 C 202.909 143.886,202.903 142.400,202.445 142.400 C 202.250 142.400,201.968 143.218,201.818 144.217 M222.286 143.500 C 222.899 144.105,223.729 145.111,224.132 145.735 C 224.535 146.359,224.958 146.776,225.072 146.661 C 225.304 146.430,223.341 143.677,222.400 142.913 C 221.258 141.985,221.177 142.404,222.286 143.500 M151.300 143.253 C 151.025 143.532,150.805 143.949,150.812 144.180 C 150.819 144.411,151.008 144.285,151.232 143.900 C 151.664 143.158,153.200 142.924,153.200 143.600 C 153.200 143.820,153.650 144.000,154.200 144.000 C 154.750 144.000,155.200 143.820,155.200 143.600 C 155.200 143.380,154.953 143.200,154.650 143.200 C 154.347 143.200,153.583 143.098,152.950 142.973 C 152.267 142.839,151.597 142.953,151.300 143.253 M211.309 144.400 C 211.309 145.390,211.387 145.795,211.482 145.300 C 211.578 144.805,211.578 143.995,211.482 143.500 C 211.387 143.005,211.309 143.410,211.309 144.400 M159.520 143.680 C 159.893 144.053,160.107 144.053,160.480 143.680 C 160.853 143.307,160.747 143.200,160.000 143.200 C 159.253 143.200,159.147 143.307,159.520 143.680 M148.893 144.800 C 148.893 145.570,148.975 145.885,149.076 145.500 C 149.176 145.115,149.176 144.485,149.076 144.100 C 148.975 143.715,148.893 144.030,148.893 144.800 M209.346 147.800 C 209.347 150.000,209.414 150.849,209.495 149.687 C 209.576 148.524,209.576 146.724,209.493 145.687 C 209.411 144.649,209.345 145.600,209.346 147.800 M189.886 144.920 C 189.585 145.705,190.456 147.061,191.986 148.190 C 193.486 149.296,194.411 149.554,193.457 148.600 C 193.127 148.270,192.696 148.000,192.498 148.000 C 191.988 148.000,190.400 146.240,190.400 145.674 C 190.400 144.979,190.955 145.092,192.146 146.029 C 193.487 147.084,193.507 146.744,192.182 145.418 C 191.066 144.302,190.196 144.113,189.886 144.920 M154.000 146.697 C 154.000 147.415,153.723 147.579,152.300 147.707 L 150.600 147.860 152.251 147.930 C 154.102 148.008,155.293 147.133,154.463 146.303 C 154.112 145.952,154.000 146.048,154.000 146.697 M154.983 148.716 C 155.098 148.832,154.993 149.168,154.748 149.463 C 154.420 149.858,154.421 150.000,154.751 150.000 C 154.998 150.000,155.200 149.820,155.200 149.600 C 155.200 149.380,155.380 149.200,155.600 149.200 C 156.324 149.200,156.017 150.343,155.124 150.968 C 154.642 151.306,154.361 151.695,154.500 151.833 C 154.847 152.180,156.800 150.169,156.800 149.465 C 156.800 149.150,156.344 148.806,155.786 148.699 C 155.229 148.593,154.867 148.600,154.983 148.716 M138.401 149.273 C 137.631 149.494,136.911 149.808,136.801 149.972 C 136.163 150.916,134.072 151.121,133.795 150.266 C 133.538 149.469,133.499 149.460,133.318 150.152 C 133.089 151.027,133.931 151.703,134.800 151.342 C 135.130 151.204,135.760 151.071,136.200 151.046 C 136.640 151.021,137.270 150.704,137.600 150.342 C 138.386 149.481,140.282 149.047,140.493 149.680 C 140.593 149.979,140.751 149.904,140.914 149.480 C 141.215 148.696,140.592 148.645,138.401 149.273 M150.000 149.611 C 150.000 149.958,151.553 150.581,151.801 150.332 C 151.878 150.255,151.505 149.985,150.971 149.733 C 150.437 149.481,150.000 149.426,150.000 149.611 M211.301 150.600 C 211.305 151.480,211.387 151.793,211.483 151.295 C 211.579 150.798,211.575 150.078,211.475 149.695 C 211.375 149.313,211.296 149.720,211.301 150.600 M196.400 150.000 C 196.400 150.220,197.199 150.400,198.176 150.400 C 199.153 150.400,200.064 150.220,200.200 150.000 C 200.352 149.753,199.671 149.600,198.424 149.600 C 197.311 149.600,196.400 149.780,196.400 150.000 M138.810 152.178 C 137.947 154.073,137.740 156.000,138.400 156.000 C 138.620 156.000,138.800 155.487,138.800 154.860 C 138.800 153.463,139.575 151.105,140.166 150.706 C 140.464 150.504,140.447 150.410,140.110 150.406 C 139.840 150.403,139.255 151.200,138.810 152.178 M152.446 152.900 C 152.479 153.538,152.545 153.603,152.671 153.125 C 152.769 152.753,153.153 152.369,153.525 152.271 C 154.003 152.145,153.938 152.079,153.300 152.046 C 152.607 152.011,152.411 152.207,152.446 152.900 M209.600 153.376 C 209.600 154.602,209.828 154.701,210.116 153.600 C 210.231 153.161,210.162 152.700,209.962 152.577 C 209.763 152.454,209.600 152.813,209.600 153.376 M211.600 153.776 C 211.600 154.339,211.780 154.800,212.000 154.800 C 212.220 154.800,212.400 154.451,212.400 154.024 C 212.400 153.597,212.220 153.136,212.000 153.000 C 211.773 152.860,211.600 153.196,211.600 153.776 M210.000 155.576 C 210.000 156.003,210.180 156.464,210.400 156.600 C 210.627 156.740,210.800 156.404,210.800 155.824 C 210.800 155.261,210.620 154.800,210.400 154.800 C 210.180 154.800,210.000 155.149,210.000 155.576 M183.940 155.488 C 184.692 155.630,184.843 155.863,184.693 156.647 C 184.514 157.582,186.203 160.000,187.035 160.000 C 187.208 160.000,186.872 159.501,186.288 158.892 C 185.515 158.085,185.293 157.531,185.471 156.851 C 185.743 155.810,185.084 155.183,183.800 155.261 C 183.149 155.300,183.175 155.342,183.940 155.488 M139.328 155.862 C 139.737 156.270,144.782 156.352,145.028 155.955 C 145.149 155.760,143.857 155.600,142.157 155.600 C 140.457 155.600,139.184 155.718,139.328 155.862 M180.654 156.633 C 180.023 157.187,179.603 157.737,179.721 157.854 C 179.838 157.971,180.308 157.692,180.767 157.233 C 181.225 156.775,181.780 156.400,182.000 156.400 C 182.220 156.400,182.400 156.220,182.400 156.000 C 182.400 155.363,181.886 155.550,180.654 156.633 M212.509 157.200 C 212.509 158.190,212.587 158.595,212.682 158.100 C 212.778 157.605,212.778 156.795,212.682 156.300 C 212.587 155.805,212.509 156.210,212.509 157.200 M146.000 156.400 C 146.000 156.620,146.360 156.800,146.800 156.800 C 147.240 156.800,147.600 156.620,147.600 156.400 C 147.600 156.180,147.240 156.000,146.800 156.000 C 146.360 156.000,146.000 156.180,146.000 156.400 M150.176 157.767 C 151.066 158.492,151.600 158.579,151.600 158.000 C 151.600 157.780,151.435 157.600,151.233 157.600 C 151.031 157.600,150.536 157.495,150.133 157.367 C 149.462 157.154,149.466 157.188,150.176 157.767 M154.000 157.539 C 154.000 157.725,154.360 158.293,154.800 158.800 C 155.240 159.307,155.600 159.850,155.600 160.007 C 155.600 160.457,159.666 164.468,159.892 164.241 C 160.004 164.129,159.293 163.264,158.311 162.319 C 157.329 161.373,156.045 159.835,155.458 158.900 C 154.416 157.241,154.000 156.853,154.000 157.539 M181.631 158.663 C 181.147 159.003,180.415 159.193,180.005 159.085 C 179.488 158.950,179.325 159.061,179.473 159.445 C 179.770 160.220,181.211 160.138,181.815 159.312 C 182.274 158.684,182.480 158.772,184.150 160.312 C 185.158 161.240,186.203 162.000,186.472 162.000 C 186.742 162.000,186.543 161.685,186.031 161.300 C 185.518 160.915,184.517 160.025,183.805 159.323 C 182.589 158.123,182.459 158.083,181.631 158.663 M153.047 159.857 C 153.681 160.705,154.380 161.637,154.600 161.928 C 155.287 162.837,157.862 165.359,159.057 166.295 C 160.606 167.507,161.101 167.441,159.762 166.200 C 159.169 165.650,158.547 165.200,158.382 165.200 C 157.882 165.200,155.259 162.417,155.006 161.618 C 154.876 161.209,154.506 160.773,154.185 160.650 C 153.863 160.526,153.600 160.156,153.600 159.827 C 153.600 159.497,153.216 159.023,152.747 158.772 C 152.010 158.377,152.051 158.524,153.047 159.857 M209.843 159.372 C 209.709 159.907,209.316 160.627,208.971 160.972 C 208.625 161.317,208.540 161.600,208.780 161.600 C 209.020 161.600,209.422 161.150,209.673 160.600 C 209.923 160.050,210.280 159.600,210.464 159.600 C 210.649 159.600,210.800 159.330,210.800 159.000 C 210.800 158.040,210.110 158.308,209.843 159.372 M267.600 159.465 C 266.648 160.478,266.643 160.506,267.500 160.051 C 267.995 159.787,268.400 159.383,268.400 159.153 C 268.400 157.710,269.444 159.451,269.646 161.231 L 269.893 163.400 269.846 161.004 C 269.792 158.207,269.178 157.786,267.600 159.465 M188.143 160.600 C 188.473 160.930,188.981 161.194,189.271 161.187 C 189.603 161.179,189.511 160.956,189.024 160.587 C 188.009 159.820,187.372 159.829,188.143 160.600 M195.800 160.800 C 195.664 161.020,195.936 161.200,196.403 161.200 C 197.098 161.200,197.203 161.362,196.974 162.081 C 196.711 162.912,196.734 162.923,197.376 162.281 C 197.981 161.676,197.990 161.533,197.457 161.000 C 196.762 160.305,196.152 160.231,195.800 160.800 M210.700 161.667 C 210.315 162.070,210.000 162.555,210.000 162.744 C 210.000 162.933,209.281 163.698,208.402 164.444 C 207.523 165.190,206.803 165.948,206.802 166.129 C 206.801 166.309,207.079 166.178,207.420 165.837 C 207.761 165.497,208.265 165.079,208.540 164.909 C 209.211 164.496,211.778 161.236,211.567 161.067 C 211.475 160.993,211.085 161.263,210.700 161.667 M191.091 161.489 C 191.801 161.577,193.061 161.579,193.891 161.492 C 194.721 161.405,194.140 161.333,192.600 161.331 C 191.060 161.329,190.381 161.400,191.091 161.489 M264.780 162.719 C 263.710 163.854,263.042 164.800,263.312 164.800 C 263.400 164.800,264.138 164.080,264.952 163.200 C 265.766 162.320,266.290 161.609,266.116 161.619 C 265.942 161.630,265.341 162.125,264.780 162.719 M205.647 164.266 C 204.463 165.440,203.629 166.400,203.794 166.400 C 204.188 166.400,208.185 162.442,207.967 162.267 C 207.875 162.193,206.831 163.092,205.647 164.266 M188.800 162.800 C 188.800 163.020,189.070 163.200,189.400 163.200 C 189.730 163.200,190.000 163.020,190.000 162.800 C 190.000 162.580,189.730 162.400,189.400 162.400 C 189.070 162.400,188.800 162.580,188.800 162.800 M194.800 162.800 C 194.800 163.020,195.171 163.200,195.624 163.200 C 196.077 163.200,196.336 163.020,196.200 162.800 C 196.064 162.580,195.693 162.400,195.376 162.400 C 195.059 162.400,194.800 162.580,194.800 162.800 M259.667 168.454 C 257.870 170.244,256.400 171.846,256.400 172.014 C 256.400 172.182,257.936 170.784,259.813 168.907 C 261.691 167.029,263.161 165.427,263.080 165.347 C 263.000 165.266,261.464 166.665,259.667 168.454 M204.962 167.400 C 204.369 167.950,204.058 168.400,204.272 168.400 C 204.486 168.400,205.083 167.950,205.600 167.400 C 206.117 166.850,206.427 166.400,206.290 166.400 C 206.153 166.400,205.556 166.850,204.962 167.400 M268.828 167.900 C 268.851 169.103,268.924 169.242,269.200 168.600 C 269.678 167.488,269.678 166.400,269.200 166.400 C 268.980 166.400,268.813 167.075,268.828 167.900 M164.000 167.136 C 164.000 167.528,166.018 168.515,166.282 168.251 C 166.380 168.153,166.087 167.954,165.630 167.810 C 165.174 167.665,164.800 167.378,164.800 167.173 C 164.800 166.968,164.620 166.800,164.400 166.800 C 164.180 166.800,164.000 166.951,164.000 167.136 M163.460 169.073 C 163.310 169.224,163.757 169.586,164.454 169.879 C 165.151 170.173,165.797 170.336,165.891 170.243 C 165.984 170.149,165.687 169.954,165.230 169.810 C 164.774 169.665,164.400 169.378,164.400 169.173 C 164.400 168.737,163.854 168.679,163.460 169.073 M200.083 170.450 C 199.139 170.918,198.450 171.383,198.551 171.484 C 198.782 171.715,201.536 170.427,201.830 169.951 C 202.134 169.460,202.018 169.493,200.083 170.450 M170.400 170.353 C 170.400 170.548,170.805 170.815,171.300 170.948 C 172.833 171.359,173.050 171.221,171.854 170.598 C 170.519 169.901,170.400 169.881,170.400 170.353 M195.200 170.672 L 194.200 171.266 195.200 171.039 C 195.750 170.913,196.335 170.808,196.500 170.805 C 196.665 170.802,196.800 170.620,196.800 170.400 C 196.800 169.880,196.426 169.944,195.200 170.672 M268.493 171.200 C 268.493 171.970,268.575 172.285,268.676 171.900 C 268.776 171.515,268.776 170.885,268.676 170.500 C 268.575 170.115,268.493 170.430,268.493 171.200 M168.399 171.751 C 168.949 172.072,169.474 172.259,169.566 172.167 C 169.814 171.919,169.514 171.730,168.400 171.433 L 167.400 171.167 168.399 171.751 M175.200 172.000 C 175.200 172.220,175.560 172.400,176.000 172.400 C 176.440 172.400,176.800 172.220,176.800 172.000 C 176.800 171.780,176.440 171.600,176.000 171.600 C 175.560 171.600,175.200 171.780,175.200 172.000 M190.400 172.000 C 190.400 172.220,190.760 172.400,191.200 172.400 C 191.640 172.400,192.000 172.220,192.000 172.000 C 192.000 171.780,191.640 171.600,191.200 171.600 C 190.760 171.600,190.400 171.780,190.400 172.000 M178.705 172.683 C 179.202 172.779,179.922 172.775,180.305 172.675 C 180.687 172.575,180.280 172.496,179.400 172.501 C 178.520 172.505,178.207 172.587,178.705 172.683 M187.700 172.676 C 188.085 172.776,188.715 172.776,189.100 172.676 C 189.485 172.575,189.170 172.493,188.400 172.493 C 187.630 172.493,187.315 172.575,187.700 172.676 M254.066 173.500 C 253.427 174.105,252.167 175.221,251.265 175.980 C 250.364 176.739,249.697 177.431,249.784 177.517 C 249.871 177.604,250.540 177.135,251.271 176.474 C 252.002 175.813,253.320 174.631,254.200 173.847 C 255.080 173.063,255.671 172.417,255.514 172.411 C 255.356 172.405,254.705 172.895,254.066 173.500 M173.902 173.984 C 174.624 174.665,175.090 174.782,176.232 174.568 C 178.046 174.227,177.561 173.772,175.000 173.413 L 173.000 173.133 173.902 173.984 M192.000 173.600 C 192.000 173.820,192.259 174.000,192.576 174.000 C 192.893 174.000,193.264 173.820,193.400 173.600 C 193.536 173.380,193.277 173.200,192.824 173.200 C 192.371 173.200,192.000 173.380,192.000 173.600 M267.600 173.776 C 267.600 174.093,267.780 174.464,268.000 174.600 C 268.220 174.736,268.400 174.477,268.400 174.024 C 268.400 173.571,268.220 173.200,268.000 173.200 C 267.780 173.200,267.600 173.459,267.600 173.776 M189.600 174.000 C 189.600 174.220,189.971 174.400,190.424 174.400 C 190.877 174.400,191.136 174.220,191.000 174.000 C 190.864 173.780,190.493 173.600,190.176 173.600 C 189.859 173.600,189.600 173.780,189.600 174.000 M180.917 174.697 C 182.411 174.774,184.751 174.774,186.117 174.696 C 187.482 174.618,186.260 174.555,183.400 174.555 C 180.540 174.556,179.422 174.620,180.917 174.697 M267.200 176.400 C 267.200 177.147,267.307 177.253,267.680 176.880 C 268.053 176.507,268.053 176.293,267.680 175.920 C 267.307 175.547,267.200 175.653,267.200 176.400 M248.200 178.400 C 247.802 178.840,247.240 179.200,246.952 179.200 C 246.664 179.200,246.233 179.565,245.995 180.010 C 245.625 180.701,245.796 180.657,247.161 179.710 C 248.040 179.100,248.853 178.375,248.967 178.100 C 249.262 177.390,249.034 177.479,248.200 178.400 M181.200 224.867 C 181.200 249.983,181.267 270.458,181.350 270.367 C 181.750 269.921,182.025 179.200,181.626 179.200 C 181.327 179.200,181.200 192.831,181.200 224.867 M176.000 180.272 L 175.000 180.866 176.000 180.639 C 176.550 180.513,177.225 180.408,177.500 180.405 C 177.775 180.402,178.000 180.220,178.000 180.000 C 178.000 179.452,177.197 179.561,176.000 180.272 M173.600 181.092 C 173.270 181.217,172.910 181.430,172.800 181.564 C 172.690 181.698,171.835 182.303,170.900 182.909 C 169.007 184.137,168.672 184.623,170.200 183.927 C 170.750 183.677,171.200 183.342,171.200 183.184 C 171.200 183.026,171.785 182.658,172.500 182.365 C 174.470 181.560,175.498 180.369,173.600 181.092 M243.893 181.600 C 243.516 182.040,243.346 182.400,243.515 182.400 C 243.684 182.400,244.130 182.040,244.507 181.600 C 244.884 181.160,245.054 180.800,244.885 180.800 C 244.716 180.800,244.270 181.160,243.893 181.600 M187.467 182.267 C 187.133 182.600,187.110 220.501,187.443 221.367 C 187.733 222.124,214.936 222.351,215.400 221.600 C 215.563 221.336,210.871 221.200,201.624 221.200 L 187.600 221.200 187.600 201.829 C 187.600 183.717,187.645 182.447,188.300 182.276 C 188.861 182.129,188.874 182.084,188.367 182.046 C 188.018 182.021,187.613 182.120,187.467 182.267 M241.600 183.200 C 241.093 183.640,240.553 184.000,240.400 184.000 C 240.247 184.000,239.707 184.360,239.200 184.800 C 238.693 185.240,238.458 185.600,238.678 185.600 C 238.898 185.600,239.487 185.245,239.986 184.812 C 240.486 184.378,241.217 183.922,241.611 183.797 C 242.004 183.672,242.427 183.306,242.550 182.985 C 242.847 182.213,242.700 182.246,241.600 183.200 M265.232 183.300 C 265.214 183.685,265.012 184.000,264.782 184.000 C 264.553 184.000,264.404 184.225,264.452 184.500 C 264.535 184.982,263.644 187.190,263.200 187.600 C 262.833 187.939,261.961 190.094,262.124 190.257 C 262.430 190.563,265.681 183.646,265.475 183.129 C 265.334 182.778,265.253 182.835,265.232 183.300 M166.237 186.585 C 165.227 187.567,164.400 188.505,164.400 188.670 C 164.400 188.835,165.341 188.077,166.492 186.985 C 167.642 185.893,168.662 184.955,168.758 184.900 C 168.855 184.845,168.740 184.800,168.503 184.800 C 168.267 184.800,167.247 185.603,166.237 186.585 M199.400 187.236 C 199.840 187.508,200.290 187.841,200.400 187.974 C 200.732 188.376,202.890 189.243,203.082 189.051 C 203.180 188.953,202.887 188.754,202.430 188.610 C 201.974 188.465,201.600 188.199,201.600 188.020 C 201.600 187.840,201.285 187.603,200.900 187.492 C 200.515 187.381,199.840 187.167,199.400 187.015 L 198.600 186.740 199.400 187.236 M233.400 188.427 C 232.055 189.289,232.239 189.438,233.781 188.736 C 234.342 188.480,234.800 188.120,234.800 187.936 C 234.800 187.518,234.843 187.503,233.400 188.427 M162.645 191.073 C 161.857 192.133,161.053 193.192,160.858 193.427 C 160.664 193.662,160.265 194.517,159.972 195.327 C 159.679 196.137,159.319 196.800,159.172 196.800 C 159.024 196.800,158.677 197.610,158.400 198.600 C 158.123 199.590,157.739 200.400,157.548 200.400 C 157.357 200.400,157.200 200.670,157.200 201.000 C 157.200 202.246,157.916 201.530,158.400 199.800 C 158.677 198.810,159.032 198.000,159.189 198.000 C 159.345 198.000,159.689 197.280,159.953 196.400 C 160.216 195.520,160.585 194.800,160.773 194.800 C 160.960 194.800,161.215 194.395,161.340 193.900 C 161.570 192.989,162.397 191.752,163.733 190.319 C 164.137 189.887,164.379 189.446,164.273 189.339 C 164.166 189.233,163.434 190.013,162.645 191.073 M203.438 189.539 C 203.310 189.746,203.499 190.029,203.860 190.168 C 204.744 190.507,204.950 190.223,204.245 189.638 C 203.903 189.354,203.577 189.314,203.438 189.539 M205.564 190.957 C 205.819 191.263,206.561 191.735,207.213 192.005 C 207.866 192.276,208.400 192.636,208.400 192.806 C 208.400 192.976,208.661 193.214,208.980 193.337 C 210.111 193.771,209.153 192.478,207.985 191.994 C 207.348 191.730,206.619 191.263,206.364 190.957 C 206.110 190.651,205.722 190.400,205.502 190.400 C 205.265 190.400,205.291 190.627,205.564 190.957 M228.660 191.103 C 228.539 191.299,227.711 191.699,226.820 191.993 C 225.929 192.287,225.200 192.660,225.200 192.821 C 225.200 192.982,224.729 193.232,224.153 193.376 C 223.577 193.521,223.207 193.740,223.330 193.864 C 223.454 193.987,224.780 193.500,226.278 192.781 C 229.403 191.279,229.409 191.276,229.107 190.973 C 228.982 190.849,228.781 190.907,228.660 191.103 M260.767 192.100 C 260.476 192.815,260.029 193.580,259.775 193.800 C 259.176 194.317,258.673 195.725,259.205 195.397 C 259.422 195.263,259.600 194.893,259.600 194.576 C 259.600 194.259,259.789 194.000,260.021 194.000 C 260.252 194.000,260.630 193.460,260.860 192.800 C 261.090 192.140,261.441 191.600,261.639 191.600 C 261.838 191.600,262.000 191.420,262.000 191.200 C 262.000 190.335,261.269 190.868,260.767 192.100 M210.255 194.200 C 210.382 194.530,210.633 194.800,210.812 194.800 C 210.992 194.800,211.675 195.251,212.329 195.802 C 212.984 196.353,214.123 196.893,214.860 197.001 L 216.200 197.197 214.885 196.783 C 214.161 196.555,213.171 196.008,212.685 195.566 C 212.198 195.124,211.515 194.501,211.166 194.181 C 210.350 193.432,209.964 193.440,210.255 194.200 M217.800 196.028 L 216.200 196.830 217.600 196.565 C 218.370 196.419,219.090 196.169,219.200 196.010 C 219.310 195.850,219.670 195.617,220.000 195.492 C 220.533 195.289,220.533 195.261,220.000 195.245 C 219.670 195.235,218.680 195.588,217.800 196.028 M257.593 196.949 C 256.579 198.571,254.716 200.754,251.600 203.971 C 248.270 207.409,246.926 208.970,248.061 208.084 C 249.085 207.283,254.215 201.963,255.471 200.400 C 256.089 199.630,256.776 198.795,256.997 198.545 C 258.031 197.375,258.800 196.373,258.800 196.195 C 258.800 195.678,258.123 196.100,257.593 196.949 M156.600 203.600 C 156.446 204.510,156.411 205.344,156.521 205.454 C 156.631 205.564,156.846 204.910,157.000 204.000 C 157.154 203.090,157.189 202.256,157.079 202.146 C 156.969 202.036,156.754 202.690,156.600 203.600 M155.600 206.600 C 155.600 206.930,155.780 207.200,156.000 207.200 C 156.220 207.200,156.400 206.930,156.400 206.600 C 156.400 206.270,156.220 206.000,156.000 206.000 C 155.780 206.000,155.600 206.270,155.600 206.600 M246.000 209.062 C 244.755 210.299,242.983 211.599,242.543 211.600 C 242.291 211.600,241.978 211.879,241.847 212.221 C 241.686 212.641,241.769 212.747,242.105 212.550 C 243.031 212.005,247.200 208.754,247.200 208.577 C 247.200 208.230,246.590 208.477,246.000 209.062 M154.893 212.400 C 154.893 213.170,154.975 213.485,155.076 213.100 C 155.176 212.715,155.176 212.085,155.076 211.700 C 154.975 211.315,154.893 211.630,154.893 212.400 M239.544 213.587 C 238.302 214.622,238.976 214.634,240.291 213.600 C 240.850 213.160,241.124 212.800,240.898 212.800 C 240.673 212.800,240.064 213.154,239.544 213.587 M233.200 216.800 C 233.200 217.020,232.900 217.200,232.533 217.200 C 232.167 217.200,231.973 217.306,232.103 217.437 C 232.437 217.770,234.000 217.223,234.000 216.773 C 234.000 216.568,233.820 216.400,233.600 216.400 C 233.380 216.400,233.200 216.580,233.200 216.800 M228.800 218.400 C 228.800 218.620,229.070 218.800,229.400 218.800 C 229.730 218.800,230.000 218.620,230.000 218.400 C 230.000 218.180,229.730 218.000,229.400 218.000 C 229.070 218.000,228.800 218.180,228.800 218.400 M154.300 218.633 C 154.135 218.798,154.000 237.263,154.000 259.667 C 154.000 304.619,153.784 300.822,156.300 300.148 C 157.310 299.877,157.524 299.200,156.600 299.200 C 156.270 299.200,156.000 299.395,156.000 299.633 C 156.000 299.872,155.775 299.992,155.500 299.900 C 155.106 299.769,154.958 291.095,154.800 259.033 C 154.690 236.648,154.465 218.468,154.300 218.633 M226.000 219.200 C 225.208 219.454,225.167 219.520,225.800 219.520 C 226.240 219.520,227.050 219.376,227.600 219.200 C 228.392 218.946,228.433 218.880,227.800 218.880 C 227.360 218.880,226.550 219.024,226.000 219.200 M222.800 220.000 C 222.800 220.220,223.160 220.400,223.600 220.400 C 224.040 220.400,224.400 220.220,224.400 220.000 C 224.400 219.780,224.040 219.600,223.600 219.600 C 223.160 219.600,222.800 219.780,222.800 220.000 M217.700 221.076 C 218.085 221.176,218.715 221.176,219.100 221.076 C 219.485 220.975,219.170 220.893,218.400 220.893 C 217.630 220.893,217.315 220.975,217.700 221.076 M180.893 273.200 C 180.893 273.970,180.975 274.285,181.076 273.900 C 181.176 273.515,181.176 272.885,181.076 272.500 C 180.975 272.115,180.893 272.430,180.893 273.200 M180.178 275.235 C 180.031 275.474,180.110 275.870,180.355 276.115 C 180.682 276.442,180.800 276.326,180.800 275.680 C 180.800 274.714,180.592 274.565,180.178 275.235 M179.600 277.400 C 179.600 277.730,179.780 278.000,180.000 278.000 C 180.220 278.000,180.400 277.730,180.400 277.400 C 180.400 277.070,180.220 276.800,180.000 276.800 C 179.780 276.800,179.600 277.070,179.600 277.400 M178.032 281.539 C 177.379 282.760,177.514 283.100,178.241 282.063 C 178.593 281.560,178.788 281.054,178.673 280.940 C 178.559 280.825,178.270 281.095,178.032 281.539 M176.667 283.467 C 176.181 283.953,176.390 284.379,177.000 284.145 C 177.330 284.018,177.600 283.754,177.600 283.557 C 177.600 283.138,177.049 283.084,176.667 283.467 M175.319 285.807 C 173.602 288.213,166.859 294.400,165.954 294.400 C 165.759 294.400,165.600 294.569,165.600 294.776 C 165.600 295.199,167.291 294.404,168.323 293.495 C 170.588 291.501,175.581 286.383,175.968 285.659 C 176.597 284.485,176.198 284.576,175.319 285.807 M163.646 295.757 C 163.030 296.099,162.853 296.385,163.146 296.567 C 163.396 296.721,163.600 296.657,163.600 296.424 C 163.600 296.191,163.859 296.000,164.176 296.000 C 164.493 296.000,164.864 295.820,165.000 295.600 C 165.336 295.057,164.796 295.120,163.646 295.757 " stroke="none" fill="#fae717" fill-rule="evenodd"></path><path id="path1" d="M188.416 94.867 C 186.334 95.065,184.534 95.378,184.416 95.564 C 184.221 95.868,181.765 96.423,179.868 96.591 C 179.465 96.627,179.015 96.849,178.868 97.084 C 178.721 97.319,177.835 97.740,176.900 98.019 C 175.965 98.298,175.200 98.642,175.200 98.783 C 175.200 98.924,174.570 99.267,173.800 99.546 C 173.030 99.824,172.400 100.220,172.400 100.426 C 172.400 100.632,172.201 100.800,171.958 100.800 C 171.275 100.800,166.800 104.525,166.800 105.094 C 166.797 106.871,164.889 107.634,160.339 107.677 C 156.483 107.713,155.692 107.831,155.084 108.460 C 154.691 108.867,154.134 109.200,153.846 109.200 C 153.559 109.200,152.998 109.560,152.600 110.000 C 152.202 110.440,151.732 110.800,151.556 110.800 C 151.044 110.800,149.452 112.547,148.801 113.825 C 148.471 114.471,148.101 115.090,147.978 115.200 C 147.855 115.310,147.520 115.979,147.234 116.687 C 146.948 117.394,146.393 118.075,146.002 118.199 C 145.610 118.324,144.841 118.825,144.294 119.313 C 143.746 119.801,142.736 120.648,142.049 121.196 C 141.362 121.743,140.800 122.373,140.799 122.596 C 140.799 122.818,140.034 123.720,139.099 124.599 C 138.165 125.478,137.445 126.243,137.500 126.299 C 137.796 126.598,137.540 127.210,137.205 127.003 C 136.978 126.863,136.911 127.023,137.047 127.379 C 137.178 127.721,137.106 128.000,136.886 128.000 C 136.666 128.000,136.372 128.457,136.232 129.016 C 136.091 129.575,135.804 129.926,135.593 129.796 C 135.379 129.664,135.315 129.834,135.447 130.179 C 135.578 130.521,135.501 130.800,135.275 130.800 C 135.049 130.800,134.745 131.340,134.600 132.000 C 134.455 132.660,134.151 133.200,133.925 133.200 C 133.699 133.200,133.618 133.470,133.745 133.800 C 133.871 134.130,133.801 134.400,133.587 134.400 C 133.374 134.400,133.200 134.658,133.200 134.974 C 133.200 135.290,132.991 136.055,132.736 136.674 C 132.481 137.293,132.308 138.025,132.353 138.300 C 132.398 138.575,132.270 138.800,132.069 138.800 C 131.867 138.800,131.581 139.560,131.432 140.488 C 131.284 141.416,130.962 142.300,130.716 142.452 C 130.410 142.641,130.483 142.940,130.950 143.407 C 131.590 144.047,131.699 144.015,132.798 142.865 C 133.441 142.192,134.739 141.421,135.683 141.151 C 136.628 140.881,137.654 140.466,137.964 140.230 C 138.447 139.862,138.450 139.926,137.984 140.674 C 137.685 141.155,137.298 141.461,137.125 141.353 C 136.951 141.246,136.916 141.438,137.047 141.779 C 137.178 142.121,137.106 142.400,136.886 142.400 C 136.666 142.400,136.372 142.857,136.232 143.416 C 136.091 143.975,135.811 144.331,135.609 144.206 C 135.407 144.081,135.312 144.343,135.398 144.789 C 135.484 145.235,135.400 145.600,135.212 145.600 C 135.024 145.600,134.749 146.321,134.600 147.202 C 134.451 148.083,134.165 148.702,133.965 148.578 C 133.552 148.323,133.502 148.993,133.840 150.252 C 134.066 151.095,136.800 150.837,136.800 149.973 C 136.800 149.620,140.759 148.626,141.041 148.907 C 141.149 149.016,140.968 149.375,140.638 149.705 C 140.308 150.035,140.150 150.416,140.286 150.552 C 140.422 150.689,140.347 150.800,140.119 150.800 C 139.722 150.800,139.031 152.957,138.677 155.300 C 138.540 156.206,138.660 156.399,139.355 156.394 C 140.047 156.389,140.092 156.318,139.600 156.000 C 139.184 155.731,139.959 155.610,142.124 155.606 C 144.230 155.602,145.162 155.739,144.984 156.026 C 144.806 156.314,145.186 156.364,146.161 156.181 C 146.952 156.032,147.600 156.074,147.600 156.273 C 147.600 156.471,148.420 156.853,149.421 157.121 C 150.423 157.389,151.458 157.793,151.721 158.018 C 151.985 158.243,152.523 158.650,152.918 158.921 C 153.313 159.193,153.665 159.797,153.700 160.264 C 153.736 160.745,153.972 161.032,154.246 160.927 C 154.511 160.825,154.843 161.107,154.985 161.552 C 155.276 162.470,157.880 165.200,158.464 165.200 C 158.675 165.200,158.719 165.408,158.562 165.662 C 158.388 165.943,158.452 166.015,158.724 165.847 C 159.246 165.524,160.861 166.991,160.467 167.430 C 160.320 167.594,160.515 167.614,160.900 167.476 C 161.285 167.338,161.600 167.387,161.600 167.586 C 161.600 167.784,161.963 168.061,162.406 168.202 C 162.849 168.343,163.096 168.644,162.956 168.872 C 162.793 169.136,163.008 169.188,163.550 169.016 C 164.030 168.864,164.400 168.920,164.400 169.146 C 164.400 169.366,164.763 169.661,165.206 169.802 C 165.649 169.943,165.896 170.244,165.756 170.472 C 165.593 170.736,165.808 170.788,166.350 170.616 C 166.825 170.465,167.200 170.520,167.200 170.741 C 167.200 170.959,167.740 171.255,168.400 171.400 C 169.060 171.545,169.600 171.849,169.600 172.075 C 169.600 172.301,169.864 172.384,170.187 172.260 C 170.510 172.136,170.871 172.191,170.988 172.381 C 171.106 172.572,172.507 172.951,174.101 173.225 C 175.696 173.498,177.171 173.874,177.380 174.061 C 177.961 174.580,189.600 174.492,189.600 173.968 C 189.600 173.697,190.045 173.634,190.800 173.800 C 191.487 173.951,192.000 173.898,192.000 173.677 C 192.000 173.465,192.810 173.169,193.800 173.021 C 194.790 172.872,195.600 172.563,195.600 172.333 C 195.600 172.103,195.901 172.030,196.268 172.171 C 196.635 172.312,197.040 172.280,197.168 172.101 C 197.501 171.633,202.936 169.005,203.330 169.122 C 203.511 169.176,203.545 169.035,203.406 168.810 C 203.267 168.584,203.317 168.400,203.518 168.400 C 203.719 168.400,204.346 167.995,204.911 167.500 C 209.209 163.737,210.000 162.993,210.000 162.715 C 210.000 162.542,210.360 162.040,210.800 161.600 C 211.240 161.160,211.600 160.429,211.600 159.976 C 211.600 159.523,211.780 159.264,212.000 159.400 C 212.250 159.554,212.400 158.749,212.400 157.257 C 212.400 155.700,212.226 154.809,211.900 154.700 C 211.526 154.575,211.400 152.791,211.400 147.600 C 211.400 142.409,211.526 140.625,211.900 140.500 C 212.175 140.408,212.400 139.898,212.400 139.367 C 212.400 138.602,212.609 138.400,213.400 138.400 C 213.950 138.400,214.400 138.562,214.400 138.760 C 214.400 138.958,215.300 139.336,216.400 139.600 C 217.500 139.864,218.400 140.224,218.400 140.401 C 218.400 140.577,218.940 140.910,219.600 141.140 C 220.260 141.370,220.800 141.704,220.800 141.882 C 220.800 142.059,221.295 142.433,221.900 142.712 C 223.027 143.232,224.895 145.608,225.381 147.141 C 225.531 147.614,225.841 148.000,226.070 148.000 C 226.298 148.000,226.386 148.258,226.265 148.574 C 226.144 148.890,226.213 149.205,226.419 149.274 C 226.625 149.343,226.835 149.906,226.886 150.525 C 227.030 152.274,227.891 152.725,228.449 151.343 C 229.552 148.612,229.186 132.000,228.022 132.000 C 227.860 132.000,227.508 131.022,227.241 129.826 C 226.973 128.630,226.601 127.595,226.414 127.526 C 226.226 127.457,226.012 127.040,225.937 126.600 C 225.861 126.160,225.529 125.530,225.197 125.200 C 224.866 124.870,224.326 124.068,223.997 123.417 C 223.669 122.766,222.370 121.256,221.111 120.061 C 219.852 118.865,218.921 117.728,219.041 117.534 C 219.161 117.339,219.111 117.220,218.930 117.269 C 218.346 117.427,216.800 116.759,216.800 116.349 C 216.800 116.131,216.632 116.056,216.428 116.183 C 216.223 116.309,215.955 116.251,215.832 116.052 C 215.468 115.463,217.150 115.211,221.500 115.205 C 225.139 115.201,225.599 115.121,225.593 114.500 C 225.586 113.784,223.972 112.000,223.333 112.000 C 223.137 112.000,222.680 111.685,222.317 111.300 C 221.104 110.015,220.393 109.557,219.995 109.803 C 219.778 109.937,219.600 109.877,219.600 109.668 C 219.600 109.460,218.983 109.173,218.229 109.032 C 217.475 108.890,216.785 108.555,216.696 108.287 C 216.461 107.583,205.535 107.595,205.300 108.300 C 205.208 108.575,204.781 108.800,204.351 108.800 C 203.426 108.800,203.598 108.543,206.400 105.729 C 207.390 104.735,208.155 103.760,208.100 103.561 C 208.045 103.362,208.180 103.200,208.400 103.200 C 208.620 103.200,209.520 102.480,210.400 101.600 C 211.280 100.720,212.171 100.000,212.380 100.000 C 212.589 100.000,212.904 99.771,213.080 99.490 C 213.256 99.210,213.895 98.666,214.500 98.281 C 216.628 96.928,215.114 96.000,210.778 96.000 C 210.167 96.000,209.607 95.840,209.533 95.644 C 209.211 94.784,194.859 94.257,188.416 94.867 M176.715 127.200 C 176.982 127.200,177.200 127.384,177.200 127.610 C 177.200 127.835,177.650 128.191,178.200 128.400 C 178.750 128.609,179.200 128.943,179.200 129.143 C 179.200 129.342,180.053 129.720,181.095 129.982 C 182.137 130.245,183.096 130.631,183.225 130.841 C 183.355 131.051,184.617 131.433,186.031 131.689 C 187.444 131.946,188.692 132.287,188.804 132.447 C 189.041 132.784,198.572 133.600,202.280 133.600 C 203.693 133.600,204.800 133.776,204.800 134.000 C 204.800 134.220,205.036 134.400,205.325 134.400 C 205.613 134.400,206.247 134.771,206.734 135.224 C 207.220 135.677,208.199 136.250,208.909 136.497 C 210.883 137.184,212.039 140.400,210.311 140.400 C 210.089 140.400,210.021 140.831,210.158 141.375 C 210.293 141.912,210.222 142.463,210.001 142.599 C 209.508 142.904,209.456 152.264,209.946 152.567 C 210.137 152.685,210.206 153.235,210.100 153.790 C 209.987 154.382,210.092 154.800,210.353 154.800 C 210.633 154.800,210.800 155.700,210.800 157.200 C 210.800 158.520,210.649 159.600,210.464 159.600 C 210.280 159.600,209.923 160.050,209.673 160.600 C 209.422 161.150,208.943 161.600,208.609 161.600 C 208.274 161.600,207.997 161.825,207.994 162.100 C 207.986 162.719,204.249 166.400,203.628 166.400 C 203.379 166.400,203.083 166.639,202.971 166.932 C 202.859 167.224,202.144 167.708,201.383 168.007 C 200.623 168.305,200.000 168.688,200.000 168.859 C 200.000 169.029,199.280 169.384,198.400 169.647 C 197.520 169.911,196.800 170.265,196.800 170.435 C 196.800 170.604,195.765 170.969,194.500 171.247 C 193.235 171.524,192.071 171.942,191.914 172.175 C 191.522 172.759,175.678 172.759,175.285 172.175 C 175.128 171.942,173.965 171.524,172.700 171.247 C 171.435 170.969,170.400 170.615,170.400 170.459 C 170.400 170.302,169.590 169.935,168.600 169.643 C 167.610 169.351,166.800 168.988,166.800 168.836 C 166.800 168.685,166.170 168.333,165.400 168.054 C 164.630 167.776,164.000 167.402,164.000 167.223 C 164.000 167.044,163.460 166.673,162.800 166.400 C 162.140 166.127,161.600 165.775,161.600 165.619 C 161.600 165.463,161.118 165.080,160.529 164.768 C 159.145 164.035,155.700 160.545,155.387 159.560 C 155.255 159.142,154.985 158.800,154.789 158.800 C 154.593 158.800,154.216 158.080,153.953 157.200 C 153.689 156.320,153.333 155.600,153.162 155.600 C 152.990 155.600,152.944 154.925,153.058 154.100 C 153.215 152.968,153.162 152.747,152.839 153.200 C 152.485 153.698,152.411 153.646,152.406 152.900 C 152.402 152.259,152.635 152.000,153.217 152.000 C 153.666 152.000,154.413 151.646,154.877 151.214 C 155.341 150.781,155.857 150.512,156.023 150.614 C 156.189 150.717,156.231 150.441,156.116 150.001 C 155.887 149.125,155.354 148.938,155.116 149.651 C 155.034 149.899,154.048 150.190,152.926 150.297 C 149.902 150.588,147.211 147.475,147.202 143.676 C 147.201 143.163,147.022 142.863,146.800 143.000 C 146.545 143.158,146.400 141.937,146.400 139.624 C 146.400 137.631,146.560 136.000,146.755 136.000 C 146.950 136.000,147.230 135.192,147.378 134.205 C 147.526 133.217,147.907 132.150,148.224 131.833 C 148.541 131.516,148.800 131.090,148.800 130.887 C 148.800 129.214,153.596 127.662,154.871 128.922 C 155.162 129.210,155.732 129.571,156.138 129.724 C 156.544 129.878,156.969 130.361,157.083 130.798 C 157.198 131.234,157.441 131.498,157.624 131.385 C 158.018 131.142,158.795 133.731,158.798 135.300 C 158.799 135.905,158.980 136.400,159.200 136.400 C 159.420 136.400,159.600 137.210,159.600 138.200 C 159.600 139.190,159.420 140.000,159.200 140.000 C 158.980 140.000,158.800 140.720,158.800 141.600 C 158.800 143.050,158.896 143.200,159.824 143.200 C 160.404 143.200,160.740 143.373,160.600 143.600 C 160.451 143.842,160.996 144.000,161.976 144.000 C 163.570 144.000,163.600 143.974,163.600 142.576 C 163.600 141.649,163.752 141.247,164.037 141.423 C 164.346 141.614,164.391 140.921,164.190 139.046 C 163.992 137.195,164.041 136.400,164.353 136.400 C 164.610 136.400,164.800 135.696,164.800 134.743 L 164.800 133.086 167.231 133.340 C 169.562 133.584,170.800 133.175,170.800 132.162 C 170.800 132.000,170.692 131.975,170.560 132.106 C 170.267 132.399,167.200 129.189,167.200 128.590 C 167.200 128.264,168.943 128.820,169.210 129.232 C 169.501 129.680,172.688 130.378,174.500 130.390 C 176.246 130.402,176.557 129.428,175.200 128.200 C 174.760 127.802,174.400 127.234,174.400 126.938 C 174.400 126.642,174.226 126.400,174.013 126.400 C 173.799 126.400,173.740 126.100,173.881 125.734 C 174.040 125.320,173.977 125.167,173.713 125.330 C 173.481 125.473,173.190 125.205,173.067 124.733 C 172.893 124.070,173.228 124.254,174.536 125.537 C 175.468 126.452,176.448 127.200,176.715 127.200 M151.600 131.902 C 151.600 132.069,151.067 132.440,150.416 132.729 C 149.665 133.061,149.051 133.754,148.736 134.626 C 148.463 135.382,148.095 136.000,147.920 136.000 C 147.744 136.000,147.600 136.540,147.600 137.200 C 147.600 138.880,148.663 138.759,149.142 137.025 C 149.857 134.434,151.578 132.819,152.800 133.591 C 153.849 134.253,153.929 141.611,152.885 141.338 C 151.370 140.942,149.211 142.795,149.205 144.495 C 149.198 146.620,150.172 147.600,152.289 147.600 C 154.663 147.600,154.849 146.119,152.500 145.924 C 151.283 145.823,150.975 145.626,150.869 144.878 C 150.650 143.330,151.486 142.734,153.462 143.030 L 155.200 143.291 155.200 139.245 C 155.200 136.540,155.052 135.200,154.755 135.200 C 154.489 135.200,154.379 134.724,154.482 134.021 C 154.577 133.373,154.508 132.933,154.328 133.045 C 154.147 133.156,154.000 133.057,154.000 132.824 C 154.000 132.591,153.730 132.400,153.400 132.400 C 153.070 132.400,152.800 132.220,152.800 132.000 C 152.800 131.780,152.530 131.600,152.200 131.600 C 151.870 131.600,151.600 131.736,151.600 131.902 M195.200 135.243 C 195.200 135.520,194.812 135.589,194.166 135.427 C 193.496 135.259,193.223 135.314,193.390 135.584 C 193.532 135.813,193.473 136.000,193.260 136.000 C 191.981 136.000,188.400 140.760,188.400 142.460 C 188.400 143.466,189.892 142.653,190.346 141.400 C 190.624 140.630,191.050 140.000,191.293 140.000 C 191.535 140.000,191.616 139.883,191.473 139.740 C 191.249 139.516,192.093 138.623,193.866 137.205 C 194.800 136.458,196.400 136.274,196.400 136.914 C 196.400 137.244,196.153 137.609,195.851 137.725 C 195.550 137.841,195.176 138.443,195.020 139.064 C 194.864 139.684,194.542 140.312,194.304 140.459 C 194.058 140.612,193.856 142.103,193.836 143.924 C 193.816 145.682,193.668 146.913,193.506 146.660 C 193.344 146.407,193.209 146.348,193.206 146.529 C 193.203 146.710,192.726 146.485,192.146 146.029 C 190.928 145.071,190.400 144.980,190.400 145.730 C 190.400 146.374,192.066 148.000,192.726 148.000 C 192.987 148.000,193.200 148.172,193.200 148.381 C 193.200 148.591,193.875 148.950,194.700 149.179 C 196.614 149.710,200.400 149.724,200.400 149.200 C 200.400 148.980,200.111 148.800,199.759 148.800 C 199.280 148.800,199.426 148.448,200.332 147.417 C 201.121 146.518,201.641 145.398,201.818 144.217 C 201.968 143.218,202.250 142.400,202.445 142.400 C 202.640 142.400,202.821 141.725,202.846 140.900 C 202.872 140.075,202.975 139.715,203.076 140.100 C 203.342 141.120,203.946 140.956,204.240 139.784 C 204.448 138.955,204.201 138.480,202.897 137.201 C 202.018 136.340,201.384 135.549,201.489 135.445 C 201.593 135.340,201.322 135.348,200.885 135.462 C 200.448 135.576,199.969 135.474,199.822 135.235 C 199.462 134.653,195.200 134.661,195.200 135.243 M200.000 137.739 C 200.000 139.348,198.527 140.726,197.828 139.771 C 197.520 139.350,197.409 138.914,197.580 138.803 C 197.752 138.691,198.019 138.195,198.173 137.700 C 198.562 136.452,200.000 136.483,200.000 137.739 M182.116 156.115 C 181.849 156.382,181.176 156.960,180.620 157.400 C 178.816 158.827,179.914 159.997,181.751 158.606 C 182.428 158.094,182.632 158.165,183.801 159.318 C 185.696 161.189,186.869 162.000,187.681 162.000 C 188.077 162.000,188.400 162.163,188.400 162.363 C 188.400 162.562,188.760 162.631,189.200 162.516 C 189.647 162.399,190.000 162.504,190.000 162.753 C 190.000 163.033,190.900 163.200,192.400 163.200 C 193.890 163.200,194.800 163.032,194.800 162.757 C 194.800 162.489,195.179 162.408,195.758 162.554 C 196.570 162.758,197.200 162.278,197.200 161.456 C 197.200 161.413,195.343 161.382,193.073 161.389 C 189.665 161.398,188.823 161.278,188.244 160.700 C 187.858 160.315,187.358 160.000,187.132 160.000 C 186.202 160.000,184.504 157.637,184.699 156.614 C 184.916 155.479,183.101 155.129,182.116 156.115 M267.695 159.928 C 267.198 160.518,265.988 161.900,265.007 163.000 C 264.026 164.100,263.218 165.117,263.211 165.260 C 263.195 165.640,256.400 172.376,256.400 172.013 C 256.400 171.844,255.620 172.447,254.667 173.353 C 251.545 176.321,250.028 177.600,249.631 177.600 C 249.416 177.600,249.096 177.826,248.920 178.102 C 248.490 178.778,245.600 180.915,245.600 180.558 C 245.600 180.403,245.195 180.727,244.700 181.278 C 244.205 181.830,243.485 182.392,243.100 182.528 C 242.715 182.664,242.400 182.939,242.400 183.139 C 242.400 183.339,241.860 183.727,241.200 184.000 C 240.540 184.273,240.000 184.638,240.000 184.809 C 240.000 184.981,239.460 185.310,238.800 185.540 C 238.140 185.770,237.600 186.114,237.600 186.305 C 237.600 186.495,236.970 186.898,236.200 187.200 C 235.430 187.502,234.800 187.874,234.800 188.026 C 234.800 188.178,234.215 188.542,233.500 188.835 C 232.785 189.127,231.962 189.599,231.671 189.883 C 231.196 190.348,230.318 190.576,229.500 190.447 C 229.335 190.421,229.199 190.625,229.198 190.900 C 229.196 191.513,223.754 194.142,223.198 193.799 C 222.979 193.664,222.800 193.810,222.800 194.124 C 222.800 194.461,222.059 194.904,221.000 195.200 C 220.010 195.477,219.200 195.832,219.200 195.988 C 219.200 196.453,215.001 197.251,214.168 196.945 C 213.471 196.690,212.660 196.113,210.151 194.086 C 209.684 193.709,208.964 193.178,208.551 192.907 C 208.138 192.636,207.144 191.979,206.341 191.447 C 205.539 190.915,204.501 190.359,204.035 190.211 C 203.570 190.063,203.275 189.802,203.381 189.631 C 203.487 189.459,202.859 189.084,201.987 188.796 C 201.114 188.508,200.400 188.132,200.400 187.962 C 200.400 187.791,199.770 187.424,199.000 187.146 C 198.230 186.867,197.600 186.503,197.600 186.336 C 197.600 186.169,196.880 185.816,196.000 185.553 C 195.120 185.289,194.400 184.950,194.400 184.800 C 194.400 184.650,193.635 184.298,192.700 184.019 C 191.765 183.740,190.910 183.368,190.799 183.193 C 190.689 183.017,189.924 182.747,189.099 182.592 L 187.600 182.311 187.600 201.755 L 187.600 221.200 201.673 221.200 C 214.584 221.200,222.800 220.744,222.800 220.027 C 222.800 219.880,224.150 219.519,225.800 219.226 C 227.450 218.933,228.800 218.566,228.800 218.410 C 228.800 218.255,229.790 217.906,231.000 217.635 C 232.210 217.364,233.200 217.004,233.200 216.835 C 233.200 216.665,233.965 216.298,234.900 216.019 C 235.835 215.740,236.690 215.379,236.800 215.218 C 237.012 214.905,238.557 214.031,240.700 213.009 C 241.415 212.668,242.000 212.212,242.000 211.995 C 242.000 211.778,242.225 211.600,242.500 211.600 C 242.958 211.599,244.331 210.619,246.100 209.029 C 246.485 208.683,246.922 208.400,247.071 208.400 C 247.220 208.400,249.001 206.701,251.028 204.623 C 253.055 202.546,254.852 200.971,255.021 201.123 C 255.190 201.276,255.200 201.177,255.044 200.905 C 254.884 200.627,255.136 200.014,255.621 199.505 C 256.096 199.007,256.755 198.197,257.086 197.703 C 257.417 197.210,257.846 196.905,258.039 197.024 C 258.233 197.144,258.284 196.962,258.153 196.621 C 258.022 196.279,258.096 196.000,258.318 196.000 C 258.540 196.000,258.910 195.460,259.140 194.800 C 259.370 194.140,259.728 193.600,259.936 193.600 C 260.143 193.600,260.428 193.143,260.568 192.584 C 260.709 192.025,260.996 191.674,261.207 191.804 C 261.421 191.936,261.485 191.766,261.353 191.421 C 261.222 191.079,261.294 190.800,261.514 190.800 C 261.734 190.800,262.028 190.343,262.168 189.784 C 262.309 189.225,262.596 188.874,262.807 189.004 C 263.026 189.140,263.082 188.957,262.937 188.580 C 262.798 188.217,262.848 187.802,263.050 187.660 C 263.579 187.285,264.554 185.088,264.452 184.500 C 264.404 184.225,264.539 184.000,264.751 184.000 C 264.963 184.000,265.264 183.418,265.421 182.706 C 265.577 181.994,265.996 181.171,266.352 180.876 C 266.709 180.582,266.775 180.455,266.500 180.594 C 266.206 180.743,266.000 180.591,266.000 180.224 C 266.000 179.881,266.163 179.600,266.362 179.600 C 266.562 179.600,266.849 178.700,267.000 177.600 C 267.170 176.365,267.435 175.698,267.693 175.857 C 267.972 176.030,268.020 175.631,267.837 174.658 C 267.678 173.807,267.723 173.200,267.946 173.200 C 268.156 173.200,268.456 171.670,268.611 169.800 C 268.767 167.930,269.060 166.400,269.262 166.400 C 269.763 166.400,269.505 159.092,269.000 158.960 C 268.780 158.903,268.193 159.338,267.695 159.928 M179.100 179.487 C 178.495 179.578,178.000 179.805,178.000 179.991 C 178.000 180.177,177.276 180.452,176.392 180.601 C 175.508 180.751,174.563 181.089,174.292 181.353 C 174.021 181.618,173.215 182.073,172.500 182.365 C 171.785 182.658,171.200 183.044,171.200 183.223 C 171.200 183.402,170.575 183.774,169.810 184.051 C 169.046 184.327,168.485 184.618,168.564 184.697 C 168.643 184.777,167.739 185.758,166.554 186.879 C 165.369 187.999,164.400 189.070,164.400 189.258 C 164.400 189.446,164.085 189.939,163.700 190.353 C 162.391 191.759,161.567 192.998,161.340 193.900 C 161.215 194.395,160.960 194.800,160.773 194.800 C 160.585 194.800,160.216 195.520,159.953 196.400 C 159.689 197.280,159.345 198.000,159.189 198.000 C 159.032 198.000,158.677 198.810,158.400 199.800 C 158.123 200.790,157.780 201.600,157.639 201.600 C 157.498 201.600,157.153 202.810,156.873 204.288 C 156.592 205.766,156.215 207.071,156.034 207.188 C 155.017 207.843,154.800 216.673,154.800 257.345 C 154.800 298.411,154.878 301.282,155.945 299.732 C 156.085 299.528,156.965 299.138,157.900 298.864 C 158.835 298.591,159.600 298.219,159.600 298.036 C 159.600 297.853,160.407 297.478,161.393 297.202 C 162.379 296.926,163.101 296.563,162.998 296.396 C 162.895 296.229,163.393 295.854,164.105 295.561 C 164.817 295.269,165.580 294.888,165.800 294.714 C 169.315 291.941,171.166 290.387,172.128 289.400 C 172.771 288.740,173.469 288.249,173.678 288.310 C 173.888 288.370,173.945 288.235,173.806 288.010 C 173.667 287.784,173.698 287.599,173.876 287.597 C 174.054 287.596,174.513 287.044,174.896 286.372 C 175.279 285.699,175.737 285.237,175.913 285.346 C 176.090 285.455,176.263 285.156,176.299 284.680 C 176.335 284.205,176.599 283.632,176.887 283.408 C 177.175 283.183,177.629 282.505,177.896 281.900 C 178.164 281.295,178.612 280.797,178.891 280.794 C 179.242 280.790,179.213 280.667,178.800 280.400 C 178.460 280.180,178.402 280.010,178.665 280.006 C 178.921 280.003,179.251 279.280,179.400 278.400 C 179.549 277.520,179.854 276.800,180.078 276.800 C 180.302 276.800,180.373 276.507,180.236 276.149 C 180.099 275.791,180.214 275.224,180.493 274.888 C 181.244 273.984,181.460 179.172,180.711 179.260 C 180.430 179.293,179.705 179.395,179.100 179.487 " stroke="none" fill="#051c29" fill-rule="evenodd"></path></g></svg>